PathFileType	4	(X/Y/Z)	Patient4_TMGait_0pt8_01_right_34.trc.trc
DataRate	CameraRate	NumFrames	NumMarkers	Units	OrigDataRate	OrigDataStartFrame	OrigNumFrames
89.171974522293	89.171974522293	4	33	mm	89.171974522293	71	       141
Frame#	Time	Sacral			L.Shoulder			Chest			R.Shoulder			Neck			R.ASIS			L.ASIS			R.Thigh.Superior			R.Thigh.Lateral			R.Thigh.Inferior			R.Patella			L.Thigh.Superior			L.Thigh.Lateral			L.Thigh.Inferior			L.Patella			L.Shank.Superior			L.Shank.Lateral			L.Shank.Inferior			R.Shank.Superior			R.Shank.Lateral			R.Shank.Inferior			R.Heel			R.Midfoot.Superior			R.Midfoot.Lateral			R.Toe			L.Heel			L.Midfoot.Lateral			L.Midfoot.Superior			L.Toe			L.Elbow			L.Wrist			R.Elbow			R.Wrist			
		X1	Y1	Z1	X2	Y2	Z2	X3	Y3	Z3	X4	Y4	Z4	X5	Y5	Z5	X6	Y6	Z6	X7	Y7	Z7	X8	Y8	Z8	X9	Y9	Z9	X10	Y10	Z10	X11	Y11	Z11	X12	Y12	Z12	X13	Y13	Z13	X14	Y14	Z14	X15	Y15	Z15	X16	Y16	Z16	X17	Y17	Z17	X18	Y18	Z18	X19	Y19	Z19	X20	Y20	Z20	X21	Y21	Z21	X22	Y22	Z22	X23	Y23	Z23	X24	Y24	Z24	X25	Y25	Z25	X26	Y26	Z26	X27	Y27	Z27	X28	Y28	Z28	X29	Y29	Z29	X30	Y30	Z30	X31	Y31	Z31	X32	Y32	Z32	X33	Y33	Z33	

71	38.855000000000	884.375703544485	996.037569112586	526.362507987250	1015.841518471547	1422.649119677277	327.933589877472	1148.334452707122	1356.162578492816	468.011869161234	1094.762718151631	1428.290877582074	654.314749185698	1024.937573901063	1481.667076276752	485.971502700343	1118.689569491313	929.747002412503	618.352677162006	1078.001084700256	946.095312634961	345.828381433403	1103.816665096452	714.304680931371	594.346358938033	993.683810612736	626.481703769548	659.079046783012	1045.992607522933	557.639156792813	577.882693579232	1022.450038987939	473.744169329711	582.625594332793	1156.776604059581	765.387354114288	373.649759527414	1104.207319979399	633.784893583316	299.276089048783	1215.269891249281	580.545538047906	351.547391278920	1244.001131353599	518.510119335466	347.619638282262	1231.708927328713	445.736626024773	340.559964314989	1171.063060332537	309.513384076274	302.008926956807	1271.612128068065	220.035665303621	349.020885396137	979.195895529084	393.016318980038	589.889507296661	894.219569334719	300.831247602704	653.537557876956	918.421048034028	201.561542766418	587.049382317756	764.714149063340	46.221911558912	553.342279283054	935.807571017320	96.559338886939	593.038537869262	846.110857775314	37.602076471604	629.199476371785	1054.504325292340	40.607110403051	623.804303516445	1206.850419155771	40.778398522831	401.070802899187	1272.939413566404	45.024771554130	314.264458141120	1342.350140224995	124.036350244149	326.452289335882	1473.612804214035	97.272256916974	289.137073133873	863.597227668512	1101.787616803313	252.388237406179	798.996398424201	852.100632012656	273.001229915838	1254.565922038932	1127.845319287212	757.352832724154	1476.845597891853	1225.435040250505	691.657104593863	
72	38.866214285714	885.477510193449	994.988578338651	523.141118346750	1016.665932436983	1421.846166414003	325.894274498869	1148.812343276868	1355.410775016255	466.311402801670	1094.420864240268	1427.366465857969	652.404932025140	1025.138948965190	1480.596155116015	484.056027859138	1119.260153661363	928.276059870710	616.577972590574	1080.062446657134	944.987813931645	343.754027212882	1103.631966727440	712.736895089725	592.981482955366	992.592322460940	625.597921286325	657.224106685489	1045.060927718580	556.016688662980	576.625683459377	1020.592110503735	471.732129484743	581.274809399671	1159.067513428552	764.178033263300	372.232011033489	1105.307875306563	632.041587225015	299.712707477030	1216.346913600707	578.900052586773	351.702940872483	1243.861476573954	515.494559388903	348.790013038342	1230.579861748418	442.205444850048	342.021768302001	1167.176306264152	307.010554010710	304.455881274725	1265.582862197347	215.818083488559	352.331591179801	975.903100864307	391.678459191766	588.607185031101	889.302717848535	301.197508914547	652.589808625654	911.769333198033	201.247089318427	586.569082003121	755.855989749049	47.376239823097	553.592475505808	927.214063588842	96.709894933945	593.105036666738	837.291581220231	37.999120173889	629.245067431818	1045.682971084263	40.111192878188	623.889638917600	1195.876514867860	39.644079761066	404.773734604710	1261.901149708313	42.340453022455	317.787207500985	1334.233290034729	118.235430525357	330.836553235485	1464.510812559312	86.681562871537	292.968627795583	859.688370480410	1104.120605060181	251.234783540081	790.812173755667	855.623511047292	273.251353643093	1259.343693565580	1130.468684123664	754.575195353194	1475.928004054427	1238.430863991386	688.140665573700	
73	38.877428571429	886.683235531574	994.067136740956	519.772167046100	1017.543673031989	1421.158219335055	323.736874076501	1149.328191903531	1354.839244026717	464.534853446974	1094.044621650372	1426.571112742294	650.432133995260	1025.368202269512	1479.680027459392	482.013975323226	1119.945686971923	926.945047912782	614.668856093043	1082.242900454171	944.100426628270	341.567964118307	1103.624242730996	711.313817176660	591.551525645469	991.670211431806	624.835423778755	655.233081463823	1044.429617552160	554.505560724117	575.301835743737	1019.065560064220	469.732078533306	579.865749167762	1161.465101060128	763.076912911711	370.734231197649	1106.568394347802	630.602446216081	299.909047859959	1217.485216018970	577.420423336375	351.915347353341	1243.672437206974	512.643790474385	350.049795463195	1229.458105991518	438.915531283456	343.352615714010	1163.471380515892	304.820780532794	306.283747306072	1259.489405286305	211.860556237381	355.292527302299	972.880617814790	390.414466741501	587.277157714291	884.552439170535	301.769734860487	651.570557493186	905.280815468178	201.111658788084	586.107837837399	747.040337159496	48.902999853037	553.904250063737	918.756633261939	96.920878207333	593.209317094063	828.515887862596	38.575753554148	629.324021871281	1036.888104223664	39.639702428037	623.969116153573	1184.577138864496	38.721614327678	407.783634022037	1250.636538809547	40.057583899272	320.698041697434	1325.826272159116	112.816668082462	334.884889576589	1455.149801181284	76.598378303300	296.564941533685	856.787197254570	1106.109210933805	249.899563163586	784.012348396081	858.759815024079	273.100966539159	1263.380578532367	1132.859971951740	751.924960166819	1474.330474967195	1250.072175100743	684.919201215509	
74	38.888642857143	887.963733084522	993.343152219834	516.312961607778	1018.481799139076	1420.629518937844	321.472078020762	1149.890514531100	1354.489839087133	462.690116902068	1093.669960376969	1425.964912157481	648.405695761486	1025.638141513229	1478.981373023845	479.841551427732	1120.719378202301	925.812745139497	612.619982049056	1084.482096880305	943.489502880580	339.288629171392	1103.771263518494	710.099569176032	590.014794734108	990.962891215996	624.230881486603	653.124693849615	1044.119926071158	553.169063741394	573.883911777878	1017.933359767253	467.780141484619	578.423616925877	1163.868416356662	762.148476991484	369.193961700741	1107.984047743042	629.576952554807	299.732921025995	1218.632463341816	576.199221936364	352.101285112058	1243.442469162746	510.127873135821	351.232675323551	1228.392782058806	436.037198071427	344.416659249317	1160.135730505251	303.070099006709	307.304385240520	1253.564160850516	208.382083784640	357.728495572731	970.173594372053	389.271772419644	585.938831455542	880.015210277568	302.606295250186	650.509384147238	899.004210241653	201.213108895995	585.694898826991	738.298898028585	50.900645161808	554.282817228478	910.487851816000	97.197793235693	593.367072180444	819.801048289077	39.385708397896	629.443246903773	1028.114798484038	39.204688484125	624.034258649604	1173.441318419795	38.061615355868	410.007985169230	1239.619267707546	38.277987071977	322.896705663771	1317.403387558531	108.100944292017	338.368158090651	1445.857770328146	67.665660260151	299.725517593084	854.933437518703	1107.709069691275	248.364047637135	778.664909982472	861.439805066141	272.499982820349	1266.615198981190	1134.953314129648	749.432912669668	1472.139574327639	1260.309200828457	681.995751588046	
